{"asset":{"version":"2.0","generator":"Unity 2022.3.48f1c1 glTFast 6.8.0"},"nodes":[{"name":"Lowpoly_Christmas_Pack_091:group1"},{"name":"Lowpoly_Christmas_Pack_091:transform2"},{"name":"Lowpoly_Christmas_Pack_091:pCube1","children":[1],"translation":[0,0.001072587,0],"scale":[1.29100871,0.215168148,1.29100871]},{"name":"Lowpoly_Christmas_Pack_091:transform1","translation":[0,-0.0029118564,-0.00487007434]},{"name":"Lowpoly_Christmas_Pack_091:pCube4","children":[3],"translation":[0,0.0029118564,0.00335753],"scale":[1,1,0.2777778]},{"name":"Lowpoly_Christmas_Pack_091:pCube5","mesh":0,"translation":[0,0.006768895,-0.00081974495]},{"name":"091 Black_Hat","children":[0,2,4,5],"translation":[0,0.52,0.5],"rotation":[0,-0.8853302,0,-0.464962929],"scale":[80.00001,100,80.00001]}],"buffers":[{"uri":"hat.bin","byteLength":9144}],"bufferViews":[{"buffer":0,"byteLength":696,"target":34963},{"buffer":0,"byteLength":8448,"byteOffset":696,"byteStride":48,"target":34962}],"accessors":[{"bufferView":1,"componentType":5126,"count":176,"type":"VEC3","max":[0.00645504333,0.00677214842,0.00727478834],"min":[-0.00645504333,-0.00677214842,-0.00727478834]},{"bufferView":1,"componentType":5126,"count":176,"type":"VEC3","byteOffset":12},{"bufferView":1,"componentType":5126,"count":176,"type":"VEC4","byteOffset":24},{"bufferView":1,"componentType":5126,"count":176,"type":"VEC2","byteOffset":40},{"bufferView":0,"componentType":5123,"count":180,"type":"SCALAR"},{"bufferView":0,"componentType":5123,"count":72,"type":"SCALAR","byteOffset":360},{"bufferView":0,"componentType":5123,"count":96,"type":"SCALAR","byteOffset":504}],"materials":[{"name":"Lowpoly_Christmas_Pack_091_phong1","pbrMetallicRoughness":{"baseColorFactor":[0.00466232467,0.00647700438,0.009529478,1],"metallicFactor":0}},{"name":"Lowpoly_Christmas_Pack_091_phong2","pbrMetallicRoughness":{"baseColorFactor":[0.000309597526,0.000309597526,0.000309597526,1],"metallicFactor":0}},{"name":"Lowpoly_Christmas_Pack_091_phong3","pbrMetallicRoughness":{"baseColorFactor":[1,1,0.00609653769,1],"metallicFactor":0}}],"meshes":[{"name":"Lowpoly_Christmas_Pack_091:pCube5","primitives":[{"attributes":{"POSITION":0,"NORMAL":1,"TANGENT":2,"TEXCOORD_0":3},"indices":4,"material":0},{"attributes":{"POSITION":0,"NORMAL":1,"TANGENT":2,"TEXCOORD_0":3},"indices":5,"material":1},{"attributes":{"POSITION":0,"NORMAL":1,"TANGENT":2,"TEXCOORD_0":3},"indices":6,"material":2}]}],"scene":0,"scenes":[{"name":"091 Black_Hat","nodes":[6]}]}