{"asset":{"version":"2.0","generator":"Unity 2022.3.48f1c1 glTFast 6.8.0"},"nodes":[{"name":"Cube","mesh":0,"translation":[0.1375938,2.55596423,-0.134114847],"rotation":[-0.644554,0,0,0.7645588],"scale":[10.8896132,16.4553547,1.00142455]},{"name":"Cube.001","mesh":1,"translation":[0.1375938,2.55867338,-0.453865767],"rotation":[0.6497203,0,0,0.7601734],"scale":[10.8896132,16.4553566,1.00142455]},{"name":"Cube.002","mesh":2,"translation":[0.1375938,2.42208242,0.145290375],"rotation":[-0.40612793,0,0,0.9138163],"scale":[10.8896132,16.4553566,1.00142467]},{"name":"Cube.003","mesh":3,"translation":[0.1375938,2.43140721,-0.737852335],"rotation":[0.9029437,0,0,-0.4297589],"scale":[10.8896132,16.4553528,1.00142467]},{"name":"Cube.004","mesh":4,"translation":[0.138238728,2.248301,-0.861859441],"rotation":[2.18556941E-08,0,0,1],"scale":[10.8896132,8.750566,1.00142455]},{"name":"Cube.005","mesh":5,"translation":[0.137830168,2.2311244,0.263910383],"rotation":[2.18556941E-08,0,0,1],"scale":[10.8896132,8.750566,1.00142455]},{"name":"Icosphere.000","mesh":6,"translation":[0.1426839,2.10421443,-0.8484299],"rotation":[3.09086232E-08,-0.7071068,0.7071067,-3.09086161E-08],"scale":[19.02364,15.7071962,19.02364]},{"name":"Icosphere.001","mesh":7,"translation":[0.1426839,2.10421443,0.265342146],"rotation":[3.09086232E-08,-0.7071068,0.7071067,-3.09086161E-08],"scale":[19.02364,15.7071962,19.02364]},{"name":"headphone","children":[0,1,2,3,4,5,6,7],"translation":[-0.03,-1.42,0.82],"scale":[1,1,1.2]}],"buffers":[{"uri":"headphone.bin","byteLength":26352}],"bufferViews":[{"buffer":0,"byteLength":72,"target":34963},{"buffer":0,"byteLength":72,"byteOffset":72,"target":34963},{"buffer":0,"byteLength":72,"byteOffset":144,"target":34963},{"buffer":0,"byteLength":72,"byteOffset":216,"target":34963},{"buffer":0,"byteLength":72,"byteOffset":288,"target":34963},{"buffer":0,"byteLength":72,"byteOffset":360,"target":34963},{"buffer":0,"byteLength":480,"byteOffset":432,"target":34963},{"buffer":0,"byteLength":480,"byteOffset":912,"target":34963},{"buffer":0,"byteLength":960,"byteOffset":1392,"byteStride":40,"target":34962},{"buffer":0,"byteLength":960,"byteOffset":2352,"byteStride":40,"target":34962},{"buffer":0,"byteLength":960,"byteOffset":3312,"byteStride":40,"target":34962},{"buffer":0,"byteLength":960,"byteOffset":4272,"byteStride":40,"target":34962},{"buffer":0,"byteLength":960,"byteOffset":5232,"byteStride":40,"target":34962},{"buffer":0,"byteLength":960,"byteOffset":6192,"byteStride":40,"target":34962},{"buffer":0,"byteLength":9600,"byteOffset":7152,"byteStride":40,"target":34962},{"buffer":0,"byteLength":9600,"byteOffset":16752,"byteStride":40,"target":34962}],"accessors":[{"bufferView":8,"componentType":5126,"count":24,"type":"VEC3","max":[0.0100000035,0.0100000035,0.01],"min":[-0.0100000035,-0.0100000054,-0.01]},{"bufferView":8,"componentType":5126,"count":24,"type":"VEC3","byteOffset":12},{"bufferView":8,"componentType":5126,"count":24,"type":"VEC4","byteOffset":24},{"bufferView":0,"componentType":5123,"count":36,"type":"SCALAR"},{"bufferView":9,"componentType":5126,"count":24,"type":"VEC3","max":[0.0100000035,0.0100000035,0.01],"min":[-0.0100000035,-0.0100000054,-0.01]},{"bufferView":9,"componentType":5126,"count":24,"type":"VEC3","byteOffset":12},{"bufferView":9,"componentType":5126,"count":24,"type":"VEC4","byteOffset":24},{"bufferView":1,"componentType":5123,"count":36,"type":"SCALAR"},{"bufferView":10,"componentType":5126,"count":24,"type":"VEC3","max":[0.0100000035,0.0100000035,0.01],"min":[-0.0100000035,-0.0100000054,-0.01]},{"bufferView":10,"componentType":5126,"count":24,"type":"VEC3","byteOffset":12},{"bufferView":10,"componentType":5126,"count":24,"type":"VEC4","byteOffset":24},{"bufferView":2,"componentType":5123,"count":36,"type":"SCALAR"},{"bufferView":11,"componentType":5126,"count":24,"type":"VEC3","max":[0.0100000035,0.0100000035,0.01],"min":[-0.0100000035,-0.0100000054,-0.01]},{"bufferView":11,"componentType":5126,"count":24,"type":"VEC3","byteOffset":12},{"bufferView":11,"componentType":5126,"count":24,"type":"VEC4","byteOffset":24},{"bufferView":3,"componentType":5123,"count":36,"type":"SCALAR"},{"bufferView":12,"componentType":5126,"count":24,"type":"VEC3","max":[0.0100000035,0.0100000035,0.01],"min":[-0.0100000035,-0.0100000054,-0.01]},{"bufferView":12,"componentType":5126,"count":24,"type":"VEC3","byteOffset":12},{"bufferView":12,"componentType":5126,"count":24,"type":"VEC4","byteOffset":24},{"bufferView":4,"componentType":5123,"count":36,"type":"SCALAR"},{"bufferView":13,"componentType":5126,"count":24,"type":"VEC3","max":[0.0100000035,0.0100000035,0.01],"min":[-0.0100000035,-0.0100000054,-0.01]},{"bufferView":13,"componentType":5126,"count":24,"type":"VEC3","byteOffset":12},{"bufferView":13,"componentType":5126,"count":24,"type":"VEC4","byteOffset":24},{"bufferView":5,"componentType":5123,"count":36,"type":"SCALAR"},{"bufferView":14,"componentType":5126,"count":240,"type":"VEC3","max":[0.009510579,0.009999999,0.01],"min":[-0.009510579,-0.009999999,-0.01]},{"bufferView":14,"componentType":5126,"count":240,"type":"VEC3","byteOffset":12},{"bufferView":14,"componentType":5126,"count":240,"type":"VEC4","byteOffset":24},{"bufferView":6,"componentType":5123,"count":240,"type":"SCALAR"},{"bufferView":15,"componentType":5126,"count":240,"type":"VEC3","max":[0.009510579,0.009999999,0.01],"min":[-0.009510579,-0.009999999,-0.01]},{"bufferView":15,"componentType":5126,"count":240,"type":"VEC3","byteOffset":12},{"bufferView":15,"componentType":5126,"count":240,"type":"VEC4","byteOffset":24},{"bufferView":7,"componentType":5123,"count":240,"type":"SCALAR"}],"materials":[{"name":"Material","pbrMetallicRoughness":{"baseColorFactor":[0.3672466,0.3672466,0.3672466,1],"metallicFactor":0,"roughnessFactor":0.690034747}},{"name":"Material.001","pbrMetallicRoughness":{"baseColorFactor":[0.3672466,0.3672466,0.3672466,1],"metallicFactor":0,"roughnessFactor":0.690034747}},{"name":"Material.002","pbrMetallicRoughness":{"baseColorFactor":[0.3672466,0.3672466,0.3672466,1],"metallicFactor":0,"roughnessFactor":0.690034747}},{"name":"Material.003","pbrMetallicRoughness":{"baseColorFactor":[0.3672466,0.3672466,0.3672466,1],"metallicFactor":0,"roughnessFactor":0.690034747}},{"name":"Material.004","pbrMetallicRoughness":{"baseColorFactor":[0.3672466,0.3672466,0.3672466,1],"metallicFactor":0,"roughnessFactor":0.690034747}},{"name":"Material.007","pbrMetallicRoughness":{"baseColorFactor":[0.6038274,0.6038274,0.6038274,1],"metallicFactor":0,"roughnessFactor":0.690034747}},{"name":"Material.017","pbrMetallicRoughness":{"baseColorFactor":[0,0,0,1],"metallicFactor":0,"roughnessFactor":0.690034747}},{"name":"Material.009","pbrMetallicRoughness":{"baseColorFactor":[0,0,0,1],"metallicFactor":0,"roughnessFactor":0.690034747}}],"meshes":[{"name":"Cube","primitives":[{"attributes":{"POSITION":0,"NORMAL":1,"TANGENT":2},"indices":3,"material":0}]},{"name":"Cube.001","primitives":[{"attributes":{"POSITION":4,"NORMAL":5,"TANGENT":6},"indices":7,"material":1}]},{"name":"Cube.002","primitives":[{"attributes":{"POSITION":8,"NORMAL":9,"TANGENT":10},"indices":11,"material":2}]},{"name":"Cube.003","primitives":[{"attributes":{"POSITION":12,"NORMAL":13,"TANGENT":14},"indices":15,"material":3}]},{"name":"Cube.004","primitives":[{"attributes":{"POSITION":16,"NORMAL":17,"TANGENT":18},"indices":19,"material":4}]},{"name":"Cube.005","primitives":[{"attributes":{"POSITION":20,"NORMAL":21,"TANGENT":22},"indices":23,"material":5}]},{"name":"Icosphere.000","primitives":[{"attributes":{"POSITION":24,"NORMAL":25,"TANGENT":26},"indices":27,"material":6}]},{"name":"Icosphere.001","primitives":[{"attributes":{"POSITION":28,"NORMAL":29,"TANGENT":30},"indices":31,"material":7}]}],"scene":0,"scenes":[{"name":"headphone","nodes":[8]}]}