{"asset":{"version":"2.0","generator":"Unity 2022.3.48f1c1 glTFast 6.8.0"},"nodes":[{"name":"MusicalNote5_MusicalNote5_0","mesh":0,"translation":[0,1,0],"rotation":[0.831481338,0,-0.55555284,0],"scale":[50,50,50]},{"name":"MusicalNote1_MusicalNote1_0","mesh":1,"translation":[0,1,0],"rotation":[-0.7048091,0,0.709397,0],"scale":[50,50,50]},{"name":"MusicalNote2_MusicalNote2_0","mesh":2,"translation":[0,1,0],"rotation":[0.4433198,0.17119664,-0.8674049,-0.147540271],"scale":[50,50,50]},{"name":"MusicalNote8_MusicalNote8_0","mesh":3,"translation":[0,1,0],"rotation":[0.44564867,0,-0.895208,0],"scale":[50,50,50]},{"name":"MusicalNote3_MusicalNote3_0","mesh":4,"translation":[0,1,0],"rotation":[0.495472252,0,-0.8686238,0],"scale":[50,50,50]},{"name":"MusicalNote7_MusicalNote7_0","mesh":5,"translation":[0,1,0],"rotation":[0.9402274,0,-0.3405474,0],"scale":[50,50,50]},{"name":"MusicalNote6_MusicalNote6_0","mesh":6,"translation":[0,1,0],"rotation":[0.8194852,0,-0.573100448,0],"scale":[50,50,50]},{"name":"MusicalNote4_MusicalNote4_0","mesh":7,"translation":[0,1,0],"rotation":[0.364153236,-5.69344338E-05,-0.931337953,0.001443466],"scale":[50,50,50]},{"name":"musical-note","children":[0,1,2,3,4,5,6,7],"translation":[0,0.3,0.5],"scale":[2,2,2]}],"buffers":[{"uri":"musical-note.bin","byteLength":178908}],"bufferViews":[{"buffer":0,"byteLength":3828,"target":34963},{"buffer":0,"byteLength":1032,"byteOffset":3828,"target":34963},{"buffer":0,"byteLength":1224,"byteOffset":4860,"target":34963},{"buffer":0,"byteLength":3744,"byteOffset":6084,"target":34963},{"buffer":0,"byteLength":2088,"byteOffset":9828,"target":34963},{"buffer":0,"byteLength":2928,"byteOffset":11916,"target":34963},{"buffer":0,"byteLength":2616,"byteOffset":14844,"target":34963},{"buffer":0,"byteLength":2952,"byteOffset":17460,"target":34963},{"buffer":0,"byteLength":31104,"byteOffset":20412,"byteStride":48,"target":34962},{"buffer":0,"byteLength":9120,"byteOffset":51516,"byteStride":48,"target":34962},{"buffer":0,"byteLength":8064,"byteOffset":60636,"byteStride":48,"target":34962},{"buffer":0,"byteLength":32832,"byteOffset":68700,"byteStride":48,"target":34962},{"buffer":0,"byteLength":15552,"byteOffset":101532,"byteStride":48,"target":34962},{"buffer":0,"byteLength":21312,"byteOffset":117084,"byteStride":48,"target":34962},{"buffer":0,"byteLength":17472,"byteOffset":138396,"byteStride":48,"target":34962},{"buffer":0,"byteLength":23040,"byteOffset":155868,"byteStride":48,"target":34962}],"accessors":[{"bufferView":8,"componentType":5126,"count":648,"type":"VEC3","max":[0.00637326529,0.000910799,0.007195339],"min":[-0.00273678033,-0.000910816,-0.0071954797]},{"bufferView":8,"componentType":5126,"count":648,"type":"VEC3","byteOffset":12},{"bufferView":8,"componentType":5126,"count":648,"type":"VEC4","byteOffset":24},{"bufferView":8,"componentType":5126,"count":648,"type":"VEC2","byteOffset":40},{"bufferView":0,"componentType":5123,"count":1914,"type":"SCALAR"},{"bufferView":9,"componentType":5126,"count":190,"type":"VEC3","max":[0.002736754,0.00066846027,0.00719540939],"min":[-0.00273676,-0.000668457942,-0.00719540939]},{"bufferView":9,"componentType":5126,"count":190,"type":"VEC3","byteOffset":12},{"bufferView":9,"componentType":5126,"count":190,"type":"VEC4","byteOffset":24},{"bufferView":9,"componentType":5126,"count":190,"type":"VEC2","byteOffset":40},{"bufferView":1,"componentType":5123,"count":516,"type":"SCALAR"},{"bufferView":10,"componentType":5126,"count":168,"type":"VEC3","max":[0.002736734,0.000910799,0.007195339],"min":[-0.00273678,-0.000910816,-0.0071954797]},{"bufferView":10,"componentType":5126,"count":168,"type":"VEC3","byteOffset":12},{"bufferView":10,"componentType":5126,"count":168,"type":"VEC4","byteOffset":24},{"bufferView":10,"componentType":5126,"count":168,"type":"VEC2","byteOffset":40},{"bufferView":2,"componentType":5123,"count":612,"type":"SCALAR"},{"bufferView":11,"componentType":5126,"count":684,"type":"VEC3","max":[0.00503176264,0.0004284697,0.0143460846],"min":[-0.00503176,-0.00042847,-0.0143460995]},{"bufferView":11,"componentType":5126,"count":684,"type":"VEC3","byteOffset":12},{"bufferView":11,"componentType":5126,"count":684,"type":"VEC4","byteOffset":24},{"bufferView":11,"componentType":5126,"count":684,"type":"VEC2","byteOffset":40},{"bufferView":3,"componentType":5123,"count":1872,"type":"SCALAR"},{"bufferView":12,"componentType":5126,"count":324,"type":"VEC3","max":[0.00637326529,0.000910799,0.007195339],"min":[-0.00273678033,-0.000910816,-0.0071954797]},{"bufferView":12,"componentType":5126,"count":324,"type":"VEC3","byteOffset":12},{"bufferView":12,"componentType":5126,"count":324,"type":"VEC4","byteOffset":24},{"bufferView":12,"componentType":5126,"count":324,"type":"VEC2","byteOffset":40},{"bufferView":4,"componentType":5123,"count":1044,"type":"SCALAR"},{"bufferView":13,"componentType":5126,"count":444,"type":"VEC3","max":[0.0113922125,0.000910799,0.008221748],"min":[-0.00273677986,-0.000910816,-0.00719547924]},{"bufferView":13,"componentType":5126,"count":444,"type":"VEC3","byteOffset":12},{"bufferView":13,"componentType":5126,"count":444,"type":"VEC4","byteOffset":24},{"bufferView":13,"componentType":5126,"count":444,"type":"VEC2","byteOffset":40},{"bufferView":5,"componentType":5123,"count":1464,"type":"SCALAR"},{"bufferView":14,"componentType":5126,"count":364,"type":"VEC3","max":[0.0113922125,0.000910799,0.008221748],"min":[-0.00273677986,-0.000910816,-0.00719547924]},{"bufferView":14,"componentType":5126,"count":364,"type":"VEC3","byteOffset":12},{"bufferView":14,"componentType":5126,"count":364,"type":"VEC4","byteOffset":24},{"bufferView":14,"componentType":5126,"count":364,"type":"VEC2","byteOffset":40},{"bufferView":6,"componentType":5123,"count":1308,"type":"SCALAR"},{"bufferView":15,"componentType":5126,"count":480,"type":"VEC3","max":[0.00637326529,0.000910799,0.007195339],"min":[-0.00273678033,-0.000910816,-0.0071954797]},{"bufferView":15,"componentType":5126,"count":480,"type":"VEC3","byteOffset":12},{"bufferView":15,"componentType":5126,"count":480,"type":"VEC4","byteOffset":24},{"bufferView":15,"componentType":5126,"count":480,"type":"VEC2","byteOffset":40},{"bufferView":7,"componentType":5123,"count":1476,"type":"SCALAR"}],"materials":[{"name":"Black","pbrMetallicRoughness":{"baseColorFactor":[0,0,0,1],"metallicFactor":0}}],"meshes":[{"name":"MusicalNote5_MusicalNote5_0","primitives":[{"attributes":{"POSITION":0,"NORMAL":1,"TANGENT":2,"TEXCOORD_0":3},"indices":4,"material":0}]},{"name":"MusicalNote1_MusicalNote1_0","primitives":[{"attributes":{"POSITION":5,"NORMAL":6,"TANGENT":7,"TEXCOORD_0":8},"indices":9,"material":0}]},{"name":"MusicalNote2_MusicalNote2_0","primitives":[{"attributes":{"POSITION":10,"NORMAL":11,"TANGENT":12,"TEXCOORD_0":13},"indices":14,"material":0}]},{"name":"MusicalNote8_MusicalNote8_0","primitives":[{"attributes":{"POSITION":15,"NORMAL":16,"TANGENT":17,"TEXCOORD_0":18},"indices":19,"material":0}]},{"name":"MusicalNote3_MusicalNote3_0","primitives":[{"attributes":{"POSITION":20,"NORMAL":21,"TANGENT":22,"TEXCOORD_0":23},"indices":24,"material":0}]},{"name":"MusicalNote7_MusicalNote7_0","primitives":[{"attributes":{"POSITION":25,"NORMAL":26,"TANGENT":27,"TEXCOORD_0":28},"indices":29,"material":0}]},{"name":"MusicalNote6_MusicalNote6_0","primitives":[{"attributes":{"POSITION":30,"NORMAL":31,"TANGENT":32,"TEXCOORD_0":33},"indices":34,"material":0}]},{"name":"MusicalNote4_MusicalNote4_0","primitives":[{"attributes":{"POSITION":35,"NORMAL":36,"TANGENT":37,"TEXCOORD_0":38},"indices":39,"material":0}]}],"scene":0,"scenes":[{"name":"musical-note","nodes":[8]}]}