{"asset":{"version":"2.0","generator":"Unity 2022.3.48f1c1 glTFast 6.8.0"},"nodes":[{"name":"diamond-model","mesh":0,"translation":[-40.3,0,26.57],"rotation":[0.707106769,0,0,-0.7071067],"scale":[1,1.00000012,1.00000012]}],"buffers":[{"uri":"diamond-model.bin","byteLength":2792}],"bufferViews":[{"buffer":0,"byteLength":192,"target":34963},{"buffer":0,"byteLength":2600,"byteOffset":192,"byteStride":40,"target":34962}],"accessors":[{"bufferView":1,"componentType":5126,"count":65,"type":"VEC3","max":[0.8,0.8000001,0.350000054],"min":[-0.8,-0.8000001,-0.8000001]},{"bufferView":1,"componentType":5126,"count":65,"type":"VEC3","byteOffset":12},{"bufferView":1,"componentType":5126,"count":65,"type":"VEC4","byteOffset":24},{"bufferView":0,"componentType":5123,"count":96,"type":"SCALAR"}],"materials":[{"name":"diammond","pbrMetallicRoughness":{"baseColorFactor":[0.207298428,0.7370089,1,1],"metallicFactor":0,"roughnessFactor":0}}],"meshes":[{"name":"Diamond","primitives":[{"attributes":{"POSITION":0,"NORMAL":1,"TANGENT":2},"indices":3,"material":0}]}],"scene":0,"scenes":[{"name":"diamond-model","nodes":[0]}]}